<?xml version="1.0" encoding="UTF-8"?><svg id="a" xmlns="http://www.w3.org/2000/svg" width="1538" height="529.75" viewBox="0 0 1538 529.75"><path d="M253.38,239.59c0,6.39-4.59,12.78-12.98,12.78l15.18,46.13h-29.95l-13.98-46.13h-3.79v46.13h-28.96v-144.78h54.92c13.58,0,19.57,7.39,19.57,18.77v67.1ZM207.86,179.08v49.92h14.18c2.2,0,2.8-.8,2.8-3v-43.93c0-1.8-.8-3-2.8-3h-14.18Z" fill="#021c3d" stroke-width="0"/><path d="M340.85,277.93c0,10.98-4.59,20.57-20.77,20.57h-33.55c-16.18,0-20.77-9.59-20.77-20.57v-105.44c0-11.38,5.99-18.77,19.57-18.77h35.94c13.58,0,19.57,7.39,19.57,18.77v105.44ZM297.52,179.08c-2,0-2.6,1-2.6,2.8v88.26c0,2.2.4,3,2.8,3h10.98c2.4,0,2.8-.8,2.8-3v-88.26c0-1.8-.6-2.8-2.6-2.8h-11.38Z" fill="#021c3d" stroke-width="0"/><path d="M379.19,280.52l-2.6,17.97h-29.15l26.16-144.78h30.95l26.16,144.78h-29.16l-2.6-17.97h-19.77ZM382.39,257.56h13.38l-6.59-51.32-6.79,51.32Z" fill="#021c3d" stroke-width="0"/><path d="M512.59,276.13c0,15.98-5.99,22.37-22.57,22.37h-51.32v-144.78h56.71c11.38,0,17.17,6.99,17.17,17.57v104.84ZM467.46,179.08v94.05h13.58c2.4,0,2.8-.8,2.8-3v-88.26c0-1.8-.6-2.8-2.6-2.8h-13.78Z" fill="#021c3d" stroke-width="0"/><path d="M164.45,382c0,8.6-6.18,17.19-17.46,17.19l20.42,62.06h-40.3l-18.81-62.06h-5.1v62.06h-38.95v-194.77h73.88c18.27,0,26.33,9.94,26.33,25.25v90.27ZM103.2,300.6v67.16h19.07c2.96,0,3.76-1.08,3.76-4.03v-59.1c0-2.42-1.07-4.03-3.76-4.03h-19.07Z" fill="#021c3d" stroke-width="0"/><path d="M203.01,461.25c-17.39,0-23.68-6.71-23.68-23.47v-128.45h31.01v121.96c0,2.31.42,3.35,2.93,3.35h10.69c2.51,0,2.93-1.05,2.93-3.35v-121.96h31.01v128.45c0,16.76-6.29,23.47-23.68,23.47h-31.22Z" fill="#021c3d" stroke-width="0"/><path d="M270.48,309.33h28.92l15.51,60.98v-60.98h31.22v151.92h-31.22l-16.34-63.49v63.49h-28.08v-151.92Z" fill="#021c3d" stroke-width="0"/><path d="M358.7,309.33h28.92l15.51,60.98v-60.98h31.22v151.92h-31.22l-16.34-63.49v63.49h-28.08v-151.92Z" fill="#021c3d" stroke-width="0"/><path d="M446.92,309.33h59.09l5.24,28.29h-33.11v36.04h25.15v26.19h-25.15v33.11h31.85l-5.24,28.29h-57.84v-151.92Z" fill="#021c3d" stroke-width="0"/><path d="M623.7,382c0,8.6-6.18,17.19-17.46,17.19l20.42,62.06h-40.3l-18.81-62.06h-5.1v62.06h-38.95v-194.77h73.88c18.27,0,26.33,9.94,26.33,25.25v90.27ZM562.45,300.6v67.16h19.07c2.96,0,3.76-1.08,3.76-4.03v-59.1c0-2.42-1.07-4.03-3.76-4.03h-19.07Z" fill="#021c3d" stroke-width="0"/><path d="M77.15,522.62l-1.03,7.13h-11.57l10.38-57.46h12.28l10.38,57.46h-11.57l-1.03-7.13h-7.85ZM78.42,513.5h5.31l-2.62-20.37-2.69,20.37Z" fill="#021c3d" stroke-width="0"/><path d="M119.63,529.75c-6.58,0-8.96-2.54-8.96-8.88v-48.58h11.73v46.13c0,.87.16,1.27,1.11,1.27h4.04c.95,0,1.11-.4,1.11-1.27v-46.13h11.73v48.58c0,6.34-2.38,8.88-8.96,8.88h-11.81Z" fill="#021c3d" stroke-width="0"/><path d="M177.72,472.29l2.85,10.7h-7.69v46.76h-11.73v-46.76h-7.69l3.01-10.7h21.24Z" fill="#021c3d" stroke-width="0"/><path d="M223.45,521.59c0,4.36-1.82,8.16-8.24,8.16h-13.31c-6.42,0-8.24-3.8-8.24-8.16v-41.85c0-4.52,2.38-7.45,7.77-7.45h14.27c5.39,0,7.77,2.93,7.77,7.45v41.85ZM206.25,482.36c-.79,0-1.03.4-1.03,1.11v35.03c0,.87.16,1.19,1.11,1.19h4.36c.95,0,1.11-.32,1.11-1.19v-35.03c0-.71-.24-1.11-1.03-1.11h-4.52Z" fill="#021c3d" stroke-width="0"/><path d="M280.59,472.29l2.85,10.7h-7.69v46.76h-11.73v-46.76h-7.69l3.01-10.7h21.24Z" fill="#021c3d" stroke-width="0"/><path d="M326.08,506.37c0,2.54-1.82,5.07-5.15,5.07l6.02,18.31h-11.89l-5.55-18.31h-1.51v18.31h-11.49v-57.46h21.79c5.39,0,7.77,2.93,7.77,7.45v26.63ZM308.01,482.36v19.81h5.63c.87,0,1.11-.32,1.11-1.19v-17.44c0-.71-.32-1.19-1.11-1.19h-5.63Z" fill="#021c3d" stroke-width="0"/><path d="M351.91,522.62l-1.03,7.13h-11.57l10.38-57.46h12.28l10.38,57.46h-11.57l-1.03-7.13h-7.85ZM353.18,513.5h5.31l-2.62-20.37-2.69,20.37Z" fill="#021c3d" stroke-width="0"/><path d="M385.43,472.29h10.94l5.86,23.06v-23.06h11.81v57.46h-11.81l-6.18-24.01v24.01h-10.62v-57.46Z" fill="#021c3d" stroke-width="0"/><path d="M431.56,529.75l-2.06-10.7h12.36c1.03,0,1.35-.32,1.35-1.19v-10.46c0-1.58-.56-1.66-2.14-1.66h-5.94c-3.41,0-6.42-.79-6.42-6.5v-19.5c0-4.52,2.38-7.45,7.77-7.45h15.85l1.98,10.7h-13c-.95,0-1.43.4-1.43,1.27v10.46c0,1.19.56,1.51,1.74,1.51h7.21c3.65,0,5.71,1.58,5.71,5.86v18.94c0,6.34-2.22,8.72-8.8,8.72h-14.19Z" fill="#021c3d" stroke-width="0"/><path d="M491.79,472.29c4.52,0,6.82,2.77,6.82,6.97v27.5c0,4.36-1.74,7.69-8.16,7.69h-9.83v15.3h-11.41v-57.46h22.59ZM480.61,482.36v22.59h5.71c.95,0,1.11-.32,1.11-1.19v-20.29c0-.71-.24-1.11-1.03-1.11h-5.79Z" fill="#021c3d" stroke-width="0"/><path d="M542.82,521.59c0,4.36-1.82,8.16-8.24,8.16h-13.31c-6.42,0-8.24-3.8-8.24-8.16v-41.85c0-4.52,2.38-7.45,7.77-7.45h14.27c5.39,0,7.77,2.93,7.77,7.45v41.85ZM525.63,482.36c-.79,0-1.03.4-1.03,1.11v35.03c0,.87.16,1.19,1.11,1.19h4.36c.95,0,1.11-.32,1.11-1.19v-35.03c0-.71-.24-1.11-1.03-1.11h-4.52Z" fill="#021c3d" stroke-width="0"/><path d="M587.04,506.37c0,2.54-1.82,5.07-5.15,5.07l6.02,18.31h-11.89l-5.55-18.31h-1.51v18.31h-11.49v-57.46h21.79c5.39,0,7.77,2.93,7.77,7.45v26.63ZM568.97,482.36v19.81h5.63c.87,0,1.11-.32,1.11-1.19v-17.44c0-.71-.32-1.19-1.11-1.19h-5.63Z" fill="#021c3d" stroke-width="0"/><path d="M624.53,472.29l2.85,10.7h-7.69v46.76h-11.73v-46.76h-7.69l3.01-10.7h21.24Z" fill="#021c3d" stroke-width="0"/><path d="M689,275.17c-1.19,11.67-11.08,20.8-23.06,20.8h-85.37v-20.8h108.43Z" fill="#021c3d" stroke-width="0"/><path d="M651.13,320.04h-57.58v-20.8h80.64c-1.19,11.67-11.08,20.8-23.06,20.8Z" fill="#021c3d" stroke-width="0"/><path d="M636.77,344.12h-29.79v-20.8h52.85c-1.19,11.67-11.08,20.8-23.06,20.8Z" fill="#021c3d" stroke-width="0"/><path d="M0,275.17c1.19,11.67,11.08,20.8,23.06,20.8h85.37s0-20.8,0-20.8H0Z" fill="#021c3d" stroke-width="0"/><path d="M37.87,320.04h57.58s0-20.8,0-20.8H14.81c1.19,11.67,11.08,20.8,23.06,20.8Z" fill="#021c3d" stroke-width="0"/><path d="M52.23,344.12h29.79s0-20.8,0-20.8H29.17c1.19,11.67,11.08,20.8,23.06,20.8Z" fill="#021c3d" stroke-width="0"/></svg>
