<?xml version="1.0"?><svg id="a" xmlns="http://www.w3.org/2000/svg" width="1604.19" height="839.84" viewBox="0 0 1604.19 839.84"><path d="M565.92,191.78c0,14.27-10.26,28.54-28.99,28.54l33.9,103.03h-66.9l-31.22-103.03h-8.47v103.03h-64.67V0h122.65c30.33,0,43.71,16.5,43.71,41.92v149.86ZM464.23,56.64v111.5h31.67c4.91,0,6.24-1.78,6.24-6.69V63.33c0-4.01-1.78-6.69-6.24-6.69h-31.67Z" fill="#021c3d" stroke-width="0"></path><path d="M761.26,277.41c0,24.53-10.26,45.94-46.38,45.94h-74.93c-36.13,0-46.38-21.41-46.38-45.94V41.92c0-25.42,13.38-41.92,43.71-41.92h80.28c30.33,0,43.71,16.5,43.71,41.92v235.49ZM664.48,56.64c-4.46,0-5.8,2.23-5.8,6.24v197.13c0,4.91.89,6.69,6.24,6.69h24.53c5.35,0,6.24-1.78,6.24-6.69V62.89c0-4.01-1.34-6.24-5.8-6.24h-25.42Z" fill="#021c3d" stroke-width="0"></path><path d="M846.9,283.21l-5.8,40.14h-65.12L834.41,0h69.13l58.43,323.35h-65.12l-5.8-40.14h-44.15ZM854.03,231.92h29.88l-14.72-114.62-15.16,114.62Z" fill="#021c3d" stroke-width="0"></path><path d="M1144.82,273.4c0,35.68-13.38,49.95-50.4,49.95h-114.62V0h126.66c25.42,0,38.36,15.61,38.36,39.25v234.15ZM1044.02,56.64v210.07h30.33c5.35,0,6.24-1.78,6.24-6.69V62.89c0-4.01-1.34-6.24-5.8-6.24h-30.77Z" fill="#021c3d" stroke-width="0"></path><path d="M367.29,509.85c0,19.2-13.8,38.4-39,38.4l45.6,138.6h-90l-42-138.6h-11.4v138.6h-87V251.85h165c40.8,0,58.8,22.2,58.8,56.4v201.6ZM230.49,328.05v150h42.6c6.6,0,8.4-2.4,8.4-9v-132c0-5.4-2.4-9-8.4-9h-42.6Z" fill="#021c3d" stroke-width="0"></path><path d="M453.41,686.85c-38.84,0-52.88-14.98-52.88-52.42v-286.89h69.26v272.38c0,5.15.94,7.49,6.55,7.49h23.87c5.62,0,6.55-2.34,6.55-7.49v-272.38h69.26v286.89c0,37.44-14.04,52.42-52.88,52.42h-69.73Z" fill="#021c3d" stroke-width="0"></path><path d="M604.1,347.55h64.58l34.63,136.19v-136.19h69.73v339.3h-69.73l-36.5-141.8v141.8h-62.71v-339.3Z" fill="#021c3d" stroke-width="0"></path><path d="M801.13,347.55h64.58l34.63,136.19v-136.19h69.73v339.3h-69.73l-36.5-141.8v141.8h-62.71v-339.3Z" fill="#021c3d" stroke-width="0"></path><path d="M998.15,347.55h131.98l11.7,63.18h-73.94v80.5h56.16v58.5h-56.16v73.94h71.14l-11.7,63.18h-129.17v-339.3Z" fill="#021c3d" stroke-width="0"></path><path d="M1392.99,509.85c0,19.2-13.8,38.4-39,38.4l45.6,138.6h-90l-42-138.6h-11.4v138.6h-87V251.85h165c40.8,0,58.8,22.2,58.8,56.4v201.6ZM1256.19,328.05v150h42.6c6.6,0,8.4-2.4,8.4-9v-132c0-5.4-2.4-9-8.4-9h-42.6Z" fill="#021c3d" stroke-width="0"></path><path d="M172.31,823.91l-2.3,15.93h-25.84l23.19-128.33h27.44l23.19,128.33h-25.84l-2.3-15.93h-17.52ZM175.14,803.55h11.86l-5.84-45.49-6.02,45.49Z" fill="#021c3d" stroke-width="0"></path><path d="M267.18,839.84c-14.69,0-20-5.66-20-19.82v-108.5h26.2v103.01c0,1.95.35,2.83,2.48,2.83h9.03c2.12,0,2.48-.88,2.48-2.83v-103.01h26.2v108.5c0,14.16-5.31,19.82-20,19.82h-26.37Z" fill="#021c3d" stroke-width="0"></path><path d="M396.92,711.51l6.37,23.9h-17.17v104.43h-26.2v-104.43h-17.17l6.73-23.9h47.44Z" fill="#021c3d" stroke-width="0"></path><path d="M499.05,821.61c0,9.74-4.07,18.23-18.41,18.23h-29.74c-14.34,0-18.41-8.5-18.41-18.23v-93.46c0-10.09,5.31-16.64,17.35-16.64h31.86c12.04,0,17.35,6.55,17.35,16.64v93.46ZM460.64,733.99c-1.77,0-2.3.88-2.3,2.48v78.24c0,1.95.35,2.65,2.48,2.65h9.74c2.12,0,2.48-.71,2.48-2.65v-78.24c0-1.59-.53-2.48-2.3-2.48h-10.09Z" fill="#021c3d" stroke-width="0"></path><path d="M626.67,711.51l6.37,23.9h-17.17v104.43h-26.2v-104.43h-17.17l6.73-23.9h47.44Z" fill="#021c3d" stroke-width="0"></path><path d="M728.26,787.62c0,5.66-4.07,11.33-11.51,11.33l13.45,40.89h-26.55l-12.39-40.89h-3.36v40.89h-25.67v-128.33h48.67c12.04,0,17.35,6.55,17.35,16.64v59.47ZM687.91,733.99v44.25h12.57c1.95,0,2.48-.71,2.48-2.66v-38.94c0-1.59-.71-2.65-2.48-2.65h-12.57Z" fill="#021c3d" stroke-width="0"></path><path d="M785.96,823.91l-2.3,15.93h-25.84l23.19-128.33h27.44l23.19,128.33h-25.84l-2.3-15.93h-17.52ZM788.8,803.55h11.86l-5.84-45.49-6.02,45.49Z" fill="#021c3d" stroke-width="0"></path><path d="M860.84,711.51h24.43l13.1,51.51v-51.51h26.37v128.33h-26.37l-13.81-53.63v53.63h-23.72v-128.33Z" fill="#021c3d" stroke-width="0"></path><path d="M963.85,839.84l-4.6-23.9h27.61c2.3,0,3.01-.71,3.01-2.65v-23.36c0-3.54-1.24-3.72-4.78-3.72h-13.28c-7.61,0-14.34-1.77-14.34-14.51v-43.54c0-10.09,5.31-16.64,17.35-16.64h35.4l4.42,23.9h-29.03c-2.12,0-3.19.88-3.19,2.83v23.36c0,2.65,1.24,3.36,3.89,3.36h16.11c8.14,0,12.74,3.54,12.74,13.1v42.3c0,14.16-4.96,19.47-19.65,19.47h-31.68Z" fill="#021c3d" stroke-width="0"></path><path d="M1098.37,711.51c10.09,0,15.22,6.2,15.22,15.58v61.42c0,9.73-3.89,17.17-18.23,17.17h-21.95v34.16h-25.49v-128.33h50.45ZM1073.41,733.99v50.45h12.74c2.12,0,2.48-.71,2.48-2.66v-45.31c0-1.59-.53-2.48-2.3-2.48h-12.92Z" fill="#021c3d" stroke-width="0"></path><path d="M1212.35,821.61c0,9.74-4.07,18.23-18.41,18.23h-29.74c-14.34,0-18.41-8.5-18.41-18.23v-93.46c0-10.09,5.31-16.64,17.35-16.64h31.86c12.04,0,17.35,6.55,17.35,16.64v93.46ZM1173.94,733.99c-1.77,0-2.3.88-2.3,2.48v78.24c0,1.95.35,2.65,2.48,2.65h9.74c2.12,0,2.48-.71,2.48-2.65v-78.24c0-1.59-.53-2.48-2.3-2.48h-10.09Z" fill="#021c3d" stroke-width="0"></path><path d="M1311.12,787.62c0,5.66-4.07,11.33-11.5,11.33l13.45,40.89h-26.55l-12.39-40.89h-3.36v40.89h-25.67v-128.33h48.68c12.04,0,17.35,6.55,17.35,16.64v59.47ZM1270.76,733.99v44.25h12.57c1.95,0,2.48-.71,2.48-2.66v-38.94c0-1.59-.71-2.65-2.48-2.65h-12.57Z" fill="#021c3d" stroke-width="0"></path><path d="M1394.84,711.51l6.37,23.9h-17.17v104.43h-26.2v-104.43h-17.17l6.73-23.9h47.44Z" fill="#021c3d" stroke-width="0"></path><path d="M1538.83,271.25c-2.67,26.06-24.75,46.45-51.51,46.45h-190.67v-46.45h242.18Z" fill="#021c3d" stroke-width="0"></path><path d="M1454.25,371.48h-128.6v-46.45h180.1c-2.67,26.06-24.75,46.45-51.51,46.45Z" fill="#021c3d" stroke-width="0"></path><path d="M1422.18,425.25h-66.52v-46.45h118.03c-2.67,26.06-24.75,46.45-51.51,46.45Z" fill="#021c3d" stroke-width="0"></path><path d="M0,271.25c2.67,26.06,24.75,46.45,51.51,46.45h190.67s0-46.45,0-46.45H0Z" fill="#021c3d" stroke-width="0"></path><path d="M84.58,371.48h128.6s0-46.45,0-46.45H33.07c2.67,26.06,24.75,46.45,51.51,46.45Z" fill="#021c3d" stroke-width="0"></path><path d="M116.65,425.25h66.52s0-46.45,0-46.45h-118.03c2.67,26.06,24.75,46.45,51.51,46.45Z" fill="#021c3d" stroke-width="0"></path></svg>